<?xml version="1.0" encoding="UTF-8" standalone="no"?>
<svg
   width="30"
   height="50"
   viewBox="0 0 28.125001 46.874998"
   id="svg3455"
   version="1.1"
   inkscape:version="1.1 (c68e22c387, 2021-05-23)"
   sodipodi:docname="church.svg"
   xmlns:inkscape="http://www.inkscape.org/namespaces/inkscape"
   xmlns:sodipodi="http://sodipodi.sourceforge.net/DTD/sodipodi-0.dtd"
   xmlns="http://www.w3.org/2000/svg"
   xmlns:svg="http://www.w3.org/2000/svg"
   xmlns:rdf="http://www.w3.org/1999/02/22-rdf-syntax-ns#"
   xmlns:cc="http://creativecommons.org/ns#"
   xmlns:dc="http://purl.org/dc/elements/1.1/">
  <defs
     id="defs3457" />
  <sodipodi:namedview
     id="base"
     pagecolor="#ffffff"
     bordercolor="#666666"
     borderopacity="1.0"
     inkscape:pageopacity="0.0"
     inkscape:pageshadow="2"
     inkscape:zoom="6.0906795"
     inkscape:cx="-5.0076514"
     inkscape:cy="27.008481"
     inkscape:document-units="px"
     inkscape:current-layer="g3477"
     showgrid="false"
     inkscape:window-width="1920"
     inkscape:window-height="1017"
     inkscape:window-x="-8"
     inkscape:window-y="-8"
     inkscape:window-maximized="1"
     fit-margin-top="0"
     fit-margin-left="0"
     fit-margin-right="0"
     fit-margin-bottom="0"
     inkscape:document-rotation="0"
     units="px"
     inkscape:snap-bbox="true"
     inkscape:bbox-nodes="true"
     inkscape:snap-page="true"
     inkscape:pagecheckerboard="0" />
  <metadata
     id="metadata3460">
    <rdf:RDF>
      <cc:Work
         rdf:about="">
        <dc:format>image/svg+xml</dc:format>
        <dc:type
           rdf:resource="http://purl.org/dc/dcmitype/StillImage" />
        <dc:title />
      </cc:Work>
    </rdf:RDF>
  </metadata>
  <g
     inkscape:label="Layer 1"
     inkscape:groupmode="layer"
     id="layer1"
     transform="translate(-814.59595,-274.38623)">
    <g
       id="g3477"
       transform="matrix(1.1855854,0,0,1.1855854,-151.17715,-57.3976)">
      <path
         sodipodi:nodetypes="sscccccsscs"
         inkscape:connector-curvature="0"
         id="path4337-3"
         d="m 818.12317,284.05647 c -1.77176,1.80242 -2.88153,4.42805 -2.83844,6.89772 0.09,5.16089 2.53047,7.11455 6.43325,14.21754 1.40585,3.1256 2.87314,6.43288 4.26866,11.91044 0.19394,0.80798 0.38308,1.55849 0.47057,1.62351 0.0874,0.0651 0.27663,-0.6881 0.47057,-1.49608 1.39552,-5.47757 2.86281,-8.78221 4.26866,-11.90781 3.90278,-7.10299 6.34324,-9.05667 6.43325,-14.21755 0.0431,-2.46968 -1.06943,-5.09792 -2.84119,-6.90034 -2.02395,-2.05897 -5.07669,-3.58275 -8.33129,-3.64647 -3.25461,-0.0638 -6.31009,1.46007 -8.33404,3.51904 z"
         style="display:inline;opacity:1;fill:#7ca600;fill-opacity:1;stroke:#7ca600;stroke-width:1.37487;stroke-miterlimit:4;stroke-dasharray:none;stroke-opacity:1" />
      <path
         d="m 830.06919,292.17452 v -2.93849 l -3.04165,-2.47654 v -1.01783 h 1.14061 v -1.08724 h -1.14061 v -0.90604 h -1.14063 v 0.90604 h -1.14062 v 1.08724 h 1.14062 v 1.01783 l -3.04165,2.47654 v 2.93849 l -1.52084,1.08724 v 4.43957 h 4.18228 v -2.17448 h 1.90104 v 2.17448 h 4.18227 v -4.43957 z m -6.08332,-2.43728 2.47135,-2.01216 2.47136,2.01216 v 1.62184 l -2.47136,-1.76676 -2.47135,1.76676 z m 6.46353,6.87686 h -1.90103 v -2.17449 h -4.18228 v 2.17449 h -1.90104 v -2.80872 l 3.99217,-2.85401 3.99218,2.85401 z"
         id="path2"
         style="stroke-width:0.0371205" />
    </g>
  </g>
</svg>
