<?xml version="1.0" encoding="UTF-8" standalone="no"?>
<svg
   xmlns:dc="http://purl.org/dc/elements/1.1/"
   xmlns:cc="http://creativecommons.org/ns#"
   xmlns:rdf="http://www.w3.org/1999/02/22-rdf-syntax-ns#"
   xmlns:svg="http://www.w3.org/2000/svg"
   xmlns="http://www.w3.org/2000/svg"
   xmlns:sodipodi="http://sodipodi.sourceforge.net/DTD/sodipodi-0.dtd"
   xmlns:inkscape="http://www.inkscape.org/namespaces/inkscape"
   width="30"
   height="50"
   viewBox="0 0 28.124999 46.874998"
   id="svg3455"
   version="1.1"
   inkscape:version="1.0.2 (e86c870879, 2021-01-15)"
   sodipodi:docname="party.svg">
  <defs
     id="defs3457" />
  <sodipodi:namedview
     id="base"
     pagecolor="#ffffff"
     bordercolor="#666666"
     borderopacity="1.0"
     inkscape:pageopacity="0.0"
     inkscape:pageshadow="2"
     inkscape:zoom="8.6135216"
     inkscape:cx="19.174601"
     inkscape:cy="31.176338"
     inkscape:document-units="px"
     inkscape:current-layer="g3477"
     showgrid="false"
     inkscape:window-width="1262"
     inkscape:window-height="1390"
     inkscape:window-x="0"
     inkscape:window-y="0"
     inkscape:window-maximized="1"
     fit-margin-top="0"
     fit-margin-left="0"
     fit-margin-right="0"
     fit-margin-bottom="0"
     inkscape:document-rotation="0"
     units="px"
     inkscape:snap-page="true"
     inkscape:snap-bbox="true"
     inkscape:bbox-nodes="true" />
  <metadata
     id="metadata3460">
    <rdf:RDF>
      <cc:Work
         rdf:about="">
        <dc:format>image/svg+xml</dc:format>
        <dc:type
           rdf:resource="http://purl.org/dc/dcmitype/StillImage" />
        <dc:title></dc:title>
      </cc:Work>
    </rdf:RDF>
  </metadata>
  <g
     inkscape:label="Layer 1"
     inkscape:groupmode="layer"
     id="layer1"
     transform="translate(-814.59595,-274.38623)">
    <g
       id="g3477"
       transform="matrix(1.1855854,0,0,1.1855854,-151.17715,-57.3976)">
      <path
         sodipodi:nodetypes="sscccccsscs"
         inkscape:connector-curvature="0"
         id="path4337-3"
         d="m 818.12317,284.05647 c -1.77176,1.80242 -2.88153,4.42805 -2.83844,6.89772 0.09,5.16089 2.53047,7.11455 6.43325,14.21754 1.40585,3.1256 2.87314,6.43288 4.26866,11.91044 0.19394,0.80798 0.38308,1.55849 0.47057,1.62351 0.0874,0.0651 0.27663,-0.6881 0.47057,-1.49608 1.39551,-5.47757 2.86281,-8.78222 4.26866,-11.90781 3.90278,-7.10299 6.34324,-9.05667 6.43325,-14.21755 0.0431,-2.46968 -1.06943,-5.09792 -2.84119,-6.90034 -2.02395,-2.05897 -5.07669,-3.58275 -8.33129,-3.64647 -3.25461,-0.0638 -6.31009,1.46007 -8.33404,3.51904 z"
         style="display:inline;opacity:1;fill:#88aa00;fill-opacity:1;stroke:#008000;stroke-width:1.37487;stroke-miterlimit:4;stroke-dasharray:none;stroke-opacity:1" />
      <g
         id="g57"
         transform="matrix(0.09946128,0,0,0.0948067,820.36802,284.30861)">
        <path
           d="m 64.39,58.6 c 6.44,6.44 11.29,13.3 13.92,19.19 2.82,6.3 3.11,11.65 0.21,14.55 -1.36,1.36 -3.27,2.02 -5.56,2.04 l -50.83,22.65 v 0 c -12.88,6.37 -19.22,7.33 -21.39,3.91 -2.05,-3.23 0.38,-10.08 4.8,-19.81 v 0 L 28.65,49.07 c 0.18,-1.87 0.82,-3.43 1.99,-4.6 2.9,-2.9 8.25,-2.61 14.55,0.21 5.9,2.63 12.76,7.47 19.2,13.92 z m 51.46,30.34 c 1.52,1.52 1.52,3.99 0,5.51 -1.52,1.52 -3.99,1.52 -5.51,0 -1.52,-1.52 -1.52,-3.99 0,-5.51 1.52,-1.52 3.98,-1.52 5.51,0 z m 3.7,-18.16 c 1.08,-0.2 2.12,0.51 2.32,1.59 0.2,1.08 -0.51,2.12 -1.59,2.32 -5.29,1 -9.74,-2.24 -14.34,-5.58 -6.05,-4.4 -12.4,-9.02 -20.43,-0.77 -0.76,0.79 -2.02,0.8 -2.81,0.04 -0.79,-0.76 -0.8,-2.02 -0.04,-2.81 10.43,-10.72 18.21,-5.07 25.61,0.32 3.9,2.83 7.67,5.57 11.28,4.89 z m 0.91,-59.33 c 1.1,0 1.98,0.89 1.98,1.98 0,1.1 -0.89,1.98 -1.98,1.98 -9.14,0.02 -11.54,7.38 -14.08,15.16 -2.95,9.05 -6.07,18.59 -18.45,20.71 -1.15,0.2 -2.33,0.39 -3.63,0.57 -1.24,0.17 -2.47,0.31 -3.71,0.39 -1.1,0.07 -2.04,-0.76 -2.11,-1.86 -0.07,-1.1 0.76,-2.04 1.86,-2.11 1.16,-0.08 2.3,-0.2 3.43,-0.36 1.08,-0.15 2.27,-0.34 3.49,-0.55 10.01,-1.71 12.75,-10.08 15.33,-18.01 3.01,-9.19 5.84,-17.87 17.87,-17.9 z M 50.24,1.62 c 0.2,-1.08 1.24,-1.79 2.32,-1.59 1.08,0.2 1.79,1.24 1.59,2.32 -0.65,3.43 1.73,7.09 4.18,10.85 5.09,7.83 10.44,16.04 -3.03,26.7 -0.86,0.68 -2.11,0.53 -2.79,-0.33 -0.68,-0.86 -0.53,-2.11 0.33,-2.79 C 63.47,28.37 59.14,21.7 55,15.35 52.1,10.92 49.29,6.61 50.24,1.62 Z m 45.18,5.9 -3.8,7.5 5.61,5.67 -7.95,-1.08 -3.83,7.1 -1.26,-7.9 -7.93,-1.4 7.12,-3.69 -1.16,-8.25 5.76,5.91 z M 77.44,31.86 c 1.52,1.52 1.52,3.99 0,5.51 -1.52,1.52 -3.99,1.52 -5.51,0 -1.52,-1.52 -1.52,-3.99 0,-5.51 1.52,-1.52 3.99,-1.52 5.51,0 z M 71.75,5.19 c 1.52,1.52 1.52,3.99 0,5.51 -1.52,1.52 -3.99,1.52 -5.51,0 -1.52,-1.52 -1.52,-3.99 0,-5.51 1.52,-1.52 3.99,-1.52 5.51,0 z M 46.59,24.48 c 1.52,1.52 1.52,3.99 0,5.51 -1.52,1.52 -3.99,1.52 -5.51,0 -1.52,-1.52 -1.52,-3.99 0,-5.51 1.52,-1.52 3.98,-1.52 5.51,0 z m 67.03,22.23 c 1.52,1.52 1.52,3.99 0,5.51 -1.52,1.52 -3.99,1.52 -5.51,0 -1.52,-1.52 -1.52,-3.99 0,-5.51 1.52,-1.52 3.99,-1.52 5.51,0 z m -12.24,29.9 -4.73,3.09 1.36,5.18 -4.26,-3.3 -4.61,2.84 1.92,-5.02 -4.14,-3.48 5.38,0.24 2.1,-5.19 1.36,5.37 z M 32.36,62.05 c 3.96,11.62 12.69,26.63 25.21,35.93 L 67.6,93.5 C 66.43,93.14 65.22,92.68 63.96,92.12 58.07,89.49 51.21,84.64 44.77,78.2 v 0 C 39.41,72.84 35.15,67.19 32.36,62.05 Z m 10.75,42.37 C 32.39,95 26.02,84.73 20.72,74.26 l -6.65,14.99 c 2.56,5.32 9.58,14.3 16.29,20.85 z m -26.12,11.76 c -5,-4.31 -7.29,-6.94 -9.76,-11.56 -3.38,7.61 -5.2,12.82 -3.99,14.72 1.06,1.66 5.18,0.82 13.75,-3.16 z M 31.6,49.33 c 0.01,0.07 0.01,0.15 0,0.23 -0.1,1.49 0.18,3.26 0.82,5.24 0.31,0.95 0.7,1.96 1.17,3.01 2.48,5.56 7.12,12.09 13.31,18.29 v 0 c 6.19,6.19 12.73,10.83 18.29,13.31 1.19,0.53 2.33,0.97 3.4,1.29 1.47,0.44 2.82,0.69 4.02,0.71 0.09,0 0.18,0.01 0.27,0.02 1.5,-0.01 2.71,-0.4 3.52,-1.21 C 78.33,88.29 77.88,84.14 75.58,79 73.1,73.44 68.46,66.91 62.27,60.71 56.08,54.52 49.54,49.88 43.98,47.4 38.84,45.1 34.69,44.65 32.76,46.58 c -0.66,0.67 -1.04,1.6 -1.16,2.75 z"
           id="path55" />
      </g>
    </g>
  </g>
</svg>
