<?xml version="1.0" encoding="UTF-8" standalone="no"?>
<svg
   width="30"
   height="50"
   viewBox="0 0 28.124999 46.874998"
   id="svg3455"
   version="1.1"
   inkscape:version="1.1 (c68e22c387, 2021-05-23)"
   sodipodi:docname="party.svg"
   xmlns:inkscape="http://www.inkscape.org/namespaces/inkscape"
   xmlns:sodipodi="http://sodipodi.sourceforge.net/DTD/sodipodi-0.dtd"
   xmlns="http://www.w3.org/2000/svg"
   xmlns:svg="http://www.w3.org/2000/svg"
   xmlns:rdf="http://www.w3.org/1999/02/22-rdf-syntax-ns#"
   xmlns:cc="http://creativecommons.org/ns#"
   xmlns:dc="http://purl.org/dc/elements/1.1/">
  <defs
     id="defs3457" />
  <sodipodi:namedview
     id="base"
     pagecolor="#ffffff"
     bordercolor="#666666"
     borderopacity="1.0"
     inkscape:pageopacity="0.0"
     inkscape:pageshadow="2"
     inkscape:zoom="12.181359"
     inkscape:cx="-2.4217331"
     inkscape:cy="22.780709"
     inkscape:document-units="px"
     inkscape:current-layer="g3477"
     showgrid="false"
     inkscape:window-width="1920"
     inkscape:window-height="1017"
     inkscape:window-x="-8"
     inkscape:window-y="-8"
     inkscape:window-maximized="1"
     fit-margin-top="0"
     fit-margin-left="0"
     fit-margin-right="0"
     fit-margin-bottom="0"
     inkscape:document-rotation="0"
     units="px"
     inkscape:snap-page="true"
     inkscape:snap-bbox="true"
     inkscape:bbox-nodes="true"
     inkscape:pagecheckerboard="0"
     inkscape:snap-global="false" />
  <metadata
     id="metadata3460">
    <rdf:RDF>
      <cc:Work
         rdf:about="">
        <dc:format>image/svg+xml</dc:format>
        <dc:type
           rdf:resource="http://purl.org/dc/dcmitype/StillImage" />
        <dc:title />
      </cc:Work>
    </rdf:RDF>
  </metadata>
  <g
     inkscape:label="Layer 1"
     inkscape:groupmode="layer"
     id="layer1"
     transform="translate(-814.59595,-274.38623)">
    <g
       id="g3477"
       transform="matrix(1.1855854,0,0,1.1855854,-151.17715,-57.3976)">
      <path
         sodipodi:nodetypes="sscccccsscs"
         inkscape:connector-curvature="0"
         id="path4337-3"
         d="m 818.12317,284.05647 c -1.77176,1.80242 -2.88153,4.42805 -2.83844,6.89772 0.09,5.16089 2.53047,7.11455 6.43325,14.21754 1.40585,3.1256 2.87314,6.43288 4.26866,11.91044 0.19394,0.80798 0.38308,1.55849 0.47057,1.62351 0.0874,0.0651 0.27663,-0.6881 0.47057,-1.49608 1.39551,-5.47757 2.86281,-8.78222 4.26866,-11.90781 3.90278,-7.10299 6.34324,-9.05667 6.43325,-14.21755 0.0431,-2.46968 -1.06943,-5.09792 -2.84119,-6.90034 -2.02395,-2.05897 -5.07669,-3.58275 -8.33129,-3.64647 -3.25461,-0.0638 -6.31009,1.46007 -8.33404,3.51904 z"
         style="display:inline;opacity:1;fill:#88aa00;fill-opacity:1;stroke:#88aa00;stroke-width:1.37487;stroke-miterlimit:4;stroke-dasharray:none;stroke-opacity:1" />
      <g
         id="g57"
         transform="matrix(0.09946128,0,0,0.0948067,820.36802,284.30861)" />
      <path
         fill="currentColor"
         d="m 826.1948,285.03196 c 0.022,0.12941 0.44324,2.60157 0.44324,3.54583 0,1.43979 -0.76533,2.46665 -1.8968,2.87961 l 0.35514,6.5548 c 0.0193,0.37717 -0.28081,0.69652 -0.66072,0.69652 h -1.76189 c -0.37717,0 -0.67998,-0.3166 -0.66073,-0.69652 l 0.35514,-6.5548 c -1.13422,-0.41296 -1.8968,-1.44256 -1.8968,-2.87961 0,-0.94702 0.42119,-3.41642 0.44324,-3.54583 0.088,-0.55883 1.24709,-0.5671 1.31867,0.0303 l -0.16799,3.86619 c 0.0358,0.0937 0.94068,0.0462 0.77647,0 0.0385,-0.6965 0.0495,-3.81113 0.0522,-3.8827 0.0908,-0.57261 1.23057,-0.57261 1.31867,0 0.006,0.0743 -0.0283,3.22819 0.0102,3.9247 0.0247,0.0882 0.91142,0.11466 0.77646,-0.021 l -0.12599,-3.88719 c 0.0716,-0.59465 1.23333,-0.58913 1.32141,-0.0303 z m 3.28154,7.86525 -0.41294,5.09573 c -0.0331,0.38542 0.27254,0.71578 0.65797,0.71578 h 1.54165 c 0.36615,0 0.6607,-0.29459 0.6607,-0.66071 v -12.77376 c 0,-0.36342 -0.29455,-0.66074 -0.6607,-0.66074 -2.2712,0 -6.09507,4.91406 -1.78668,8.2837 z"
         id="path2"
         style="fill:none;fill-opacity:1;stroke:#000000;stroke-width:0.56222224;stroke-miterlimit:4;stroke-dasharray:none;stroke-opacity:1"
         sodipodi:nodetypes="csccssccsccccccccccccsssssc" />
    </g>
  </g>
</svg>
